<svg width="723" height="248" viewBox="0 0 723 248" fill="none" xmlns="http://www.w3.org/2000/svg">
<path d="M567 169.5C576 167.667 594.2 158.8 595 138V75H646.5C656 77.6667 674.4 88.5 672 110.5C669 138 645 138 626 138V122C632.833 121.833 646.5 118.7 646.5 107.5C646.5 96.3 636.5 92.8333 631.5 92.5H620.5V143.5C619 155.167 606.2 176.7 567 169.5Z" fill="black"/>
<path d="M23 68.5H0L57.5 167.5L103.5 88H167V68.5H92.5L57.5 130L23 68.5Z" fill="black"/>
<path d="M178.5 169.5V50.5H218.5V135H413V52H451.5V92L526 8.5H570.5L485 106.5L542 169.5H497L460 127L424 169.5H178.5Z" fill="black"/>
<path d="M104.5 110L92.5 129.5V168H167V150H109.5V128H167V110H104.5Z" fill="#1D8989"/>
<path d="M308.5 94C308.5 112.778 293.278 128 274.5 128C255.722 128 240.5 112.778 240.5 94C240.5 75.2223 255.722 60 274.5 60C293.278 60 308.5 75.2223 308.5 94Z" fill="#1D8989"/>
<path d="M296.946 75C296.946 81.0751 292.916 86 287.946 86C282.975 86 278.946 81.0751 278.946 75C278.946 68.9249 282.975 64 287.946 64C292.916 64 296.946 68.9249 296.946 75Z" fill="white"/>
<path d="M390.5 94C390.5 112.778 375.278 128 356.5 128C337.722 128 322.5 112.778 322.5 94C322.5 75.2223 337.722 60 356.5 60C375.278 60 390.5 75.2223 390.5 94Z" fill="#1D8989"/>
<path d="M378.946 75C378.946 81.0751 374.916 86 369.946 86C364.975 86 360.946 81.0751 360.946 75C360.946 68.9249 364.975 64 369.946 64C374.916 64 378.946 68.9249 378.946 75Z" fill="white"/>
<path d="M547.819 56L527.5 82.5H535.925C535.429 96.5 534.735 128.2 535.925 143C537.114 157.8 549 167 557 167C574.5 167 583.509 156 584.5 151C569.633 154.5 563.652 145.5 562 140C560.348 134.5 560.208 82.5 560.208 82.5H568.633L547.819 56Z" fill="#1D8989"/>
<circle cx="688.5" cy="34" r="30.5" stroke="black" stroke-width="7"/>
<path d="M675.661 53V16.6364H690.007C692.753 16.6364 695.097 17.1276 697.038 18.1101C698.991 19.0807 700.477 20.4597 701.495 22.2471C702.525 24.0227 703.04 26.112 703.04 28.5149C703.04 30.9297 702.519 33.0071 701.477 34.7471C700.436 36.4754 698.926 37.8011 696.95 38.7244C694.985 39.6477 692.605 40.1094 689.812 40.1094H680.206V33.9304H688.569C690.037 33.9304 691.256 33.7292 692.227 33.3267C693.197 32.9242 693.919 32.3205 694.393 31.5156C694.878 30.7107 695.121 29.7105 695.121 28.5149C695.121 27.3075 694.878 26.2895 694.393 25.4609C693.919 24.6323 693.191 24.005 692.209 23.5788C691.238 23.1409 690.013 22.9219 688.533 22.9219H683.349V53H675.661ZM695.298 36.4517L704.336 53H695.849L687.006 36.4517H695.298Z" fill="black"/>
<path d="M85.448 220.118C85.448 222.803 84.9033 225.159 83.814 227.186C82.7247 229.213 81.192 230.758 79.216 231.822L87.044 236.192L80.394 238.738L72.832 233.266C69.0827 233.241 66.0933 232.025 63.864 229.618C61.6347 227.211 60.52 224.045 60.52 220.118C60.52 216.191 61.6473 213.025 63.902 210.618C66.182 208.186 69.2093 206.97 72.984 206.97C76.784 206.97 79.8113 208.173 82.066 210.58C84.3207 212.987 85.448 216.166 85.448 220.118ZM68.462 214.418C67.3473 215.811 66.79 217.711 66.79 220.118C66.79 222.525 67.3473 224.437 68.462 225.856C69.5767 227.249 71.084 227.946 72.984 227.946C74.884 227.946 76.3913 227.249 77.506 225.856C78.6207 224.437 79.178 222.525 79.178 220.118C79.178 217.711 78.6207 215.811 77.506 214.418C76.3913 212.999 74.884 212.29 72.984 212.29C71.084 212.29 69.5767 212.999 68.462 214.418ZM110.27 223.082C110.27 226.426 109.333 228.985 107.458 230.758C105.583 232.506 103.05 233.38 99.858 233.38C96.7167 233.38 94.196 232.506 92.296 230.758C90.396 229.01 89.446 226.54 89.446 223.348V207.388H95.298V223.31C95.298 226.477 96.818 228.06 99.858 228.06C102.898 228.06 104.418 226.413 104.418 223.12V207.388H110.27V223.082ZM122.771 222.132L122.505 223.044H128.661L128.395 222.132C127.66 219.649 127.052 217.534 126.571 215.786C126.115 214.038 125.836 212.911 125.735 212.404L125.583 211.644C125.38 213.037 124.443 216.533 122.771 222.132ZM119.541 233H113.423L121.973 207.388H129.345L137.895 233H131.625L130.067 227.756H121.099L119.541 233ZM156.569 233H141.255V207.388H147.107V227.87H156.569V233ZM166.042 233H160.19V207.388H166.042V233ZM188.413 212.1H182.181V233H176.291V212.1H170.021V207.388H188.413V212.1ZM204.637 233H198.785V223.614L190.045 207.388H196.885L198.443 211.112C199.253 213.037 199.925 214.684 200.457 216.052C200.989 217.42 201.331 218.307 201.483 218.712L201.673 219.32C201.926 218.18 203.041 215.444 205.017 211.112L206.689 207.388H213.491L204.637 223.576V233ZM231.791 233H225.939V207.388H232.361L238.327 217.99C239.163 219.485 239.885 220.891 240.493 222.208C241.126 223.5 241.531 224.412 241.709 224.944L242.013 225.78C241.759 223.905 241.633 221.309 241.633 217.99V207.388H247.485V233H241.063L234.945 222.398C234.134 221.03 233.412 219.687 232.779 218.37C232.171 217.027 231.753 216.039 231.525 215.406L231.221 214.456C231.601 216.736 231.791 219.383 231.791 222.398V233ZM268.357 233H252.435V207.388H268.205V212.062H258.325V217.876H267.141V222.512H258.325V228.326H268.357V233ZM286.329 233H279.869L271.357 207.388H277.665L280.743 217.61C281.3 219.434 281.781 221.195 282.187 222.892C282.592 224.564 282.858 225.78 282.985 226.54L283.175 227.718C283.58 225.083 284.403 221.714 285.645 217.61L288.723 207.388H294.955L286.329 233ZM314.076 233H298.154V207.388H313.924V212.062H304.044V217.876H312.86V222.512H304.044V228.326H314.076V233ZM327.564 212.138H324.676V219.358H327.45C329.983 219.358 331.25 218.117 331.25 215.634C331.25 214.545 330.92 213.696 330.262 213.088C329.603 212.455 328.704 212.138 327.564 212.138ZM324.676 233H318.824V207.388H327.678C330.54 207.388 332.833 208.148 334.556 209.668C336.304 211.188 337.178 213.164 337.178 215.596C337.178 219.244 335.62 221.765 332.504 223.158L339.002 233H332.01L326.462 224.108H324.676V233ZM370.589 231.86C369.044 232.823 366.815 233.304 363.901 233.304C360.152 233.304 357.011 232.101 354.477 229.694C351.969 227.262 350.715 224.121 350.715 220.27C350.715 216.369 351.931 213.189 354.363 210.732C356.821 208.275 360.013 207.046 363.939 207.046C366.827 207.046 369.044 207.527 370.589 208.49V214.114C368.689 212.949 366.574 212.366 364.243 212.366C362.191 212.366 360.469 213.088 359.075 214.532C357.682 215.951 356.985 217.863 356.985 220.27C356.985 222.626 357.682 224.501 359.075 225.894C360.469 227.262 362.267 227.946 364.471 227.946C366.853 227.946 368.892 227.338 370.589 226.122V231.86ZM398.948 220.118C398.948 224.045 397.808 227.224 395.528 229.656C393.273 232.063 390.259 233.266 386.484 233.266C382.684 233.266 379.657 232.063 377.402 229.656C375.147 227.249 374.02 224.07 374.02 220.118C374.02 216.191 375.147 213.025 377.402 210.618C379.682 208.186 382.709 206.97 386.484 206.97C390.284 206.97 393.311 208.173 395.566 210.58C397.821 212.987 398.948 216.166 398.948 220.118ZM381.962 214.418C380.847 215.811 380.29 217.711 380.29 220.118C380.29 222.525 380.847 224.437 381.962 225.856C383.077 227.249 384.584 227.946 386.484 227.946C388.384 227.946 389.891 227.249 391.006 225.856C392.121 224.437 392.678 222.525 392.678 220.118C392.678 217.711 392.121 215.811 391.006 214.418C389.891 212.999 388.384 212.29 386.484 212.29C384.584 212.29 383.077 212.999 381.962 214.418ZM408.232 233H402.38L404.584 207.388H411.006L414.578 216.66C415.186 218.205 415.706 219.624 416.136 220.916C416.567 222.208 416.846 223.12 416.972 223.652L417.162 224.412C417.568 222.74 418.454 220.156 419.822 216.66L423.432 207.388H429.854L432.514 233H426.662L425.712 223.082L425.218 215.596C424.56 217.496 423.648 219.991 422.482 223.082L418.872 232.734H415.414L411.842 223.082C411.26 221.511 410.766 220.105 410.36 218.864C409.955 217.623 409.689 216.761 409.562 216.28L409.372 215.596C409.372 217.395 409.258 219.89 409.03 223.082L408.232 233ZM445.684 224.716H442.72V233H436.868V207.388H445.684C448.522 207.388 450.814 208.186 452.562 209.782C454.336 211.378 455.222 213.405 455.222 215.862C455.222 218.674 454.298 220.853 452.448 222.398C450.624 223.943 448.37 224.716 445.684 224.716ZM445 212.062H442.72V220.08H444.658C447.749 220.08 449.294 218.674 449.294 215.862C449.294 213.329 447.863 212.062 445 212.062ZM467.021 212.138H464.133V219.358H466.907C469.44 219.358 470.707 218.117 470.707 215.634C470.707 214.545 470.377 213.696 469.719 213.088C469.06 212.455 468.161 212.138 467.021 212.138ZM464.133 233H458.281V207.388H467.135C469.997 207.388 472.29 208.148 474.013 209.668C475.761 211.188 476.635 213.164 476.635 215.596C476.635 219.244 475.077 221.765 471.961 223.158L478.459 233H471.467L465.919 224.108H464.133V233ZM505.6 220.118C505.6 224.045 504.46 227.224 502.18 229.656C499.926 232.063 496.911 233.266 493.136 233.266C489.336 233.266 486.309 232.063 484.054 229.656C481.8 227.249 480.672 224.07 480.672 220.118C480.672 216.191 481.8 213.025 484.054 210.618C486.334 208.186 489.362 206.97 493.136 206.97C496.936 206.97 499.964 208.173 502.218 210.58C504.473 212.987 505.6 216.166 505.6 220.118ZM488.614 214.418C487.5 215.811 486.942 217.711 486.942 220.118C486.942 222.525 487.5 224.437 488.614 225.856C489.729 227.249 491.236 227.946 493.136 227.946C495.036 227.946 496.544 227.249 497.658 225.856C498.773 224.437 499.33 222.525 499.33 220.118C499.33 217.711 498.773 215.811 497.658 214.418C496.544 212.999 495.036 212.29 493.136 212.29C491.236 212.29 489.729 212.999 488.614 214.418ZM514.885 233H509.033L511.237 207.388H517.659L521.231 216.66C521.839 218.205 522.358 219.624 522.789 220.916C523.219 222.208 523.498 223.12 523.625 223.652L523.815 224.412C524.22 222.74 525.107 220.156 526.475 216.66L530.085 207.388H536.507L539.167 233H533.315L532.365 223.082L531.871 215.596C531.212 217.496 530.3 219.991 529.135 223.082L525.525 232.734H522.067L518.495 223.082C517.912 221.511 517.418 220.105 517.013 218.864C516.607 217.623 516.341 216.761 516.215 216.28L516.025 215.596C516.025 217.395 515.911 219.89 515.683 223.082L514.885 233ZM549.753 233H543.901V207.388H549.753V233ZM570.984 225.552C570.984 227.857 570.135 229.732 568.438 231.176C566.74 232.595 564.486 233.304 561.674 233.304C558.659 233.304 556.202 232.772 554.302 231.708V225.818C556.607 227.49 559.064 228.326 561.674 228.326C562.56 228.326 563.295 228.098 563.878 227.642C564.46 227.161 564.752 226.54 564.752 225.78C564.752 225.527 564.714 225.286 564.638 225.058C564.562 224.83 564.422 224.615 564.22 224.412C564.017 224.209 563.814 224.045 563.612 223.918C563.434 223.766 563.156 223.601 562.776 223.424C562.421 223.221 562.117 223.057 561.864 222.93C561.61 222.803 561.23 222.626 560.724 222.398C560.242 222.17 559.85 221.993 559.546 221.866C557.899 221.106 556.569 220.169 555.556 219.054C554.568 217.939 554.074 216.457 554.074 214.608C554.074 212.404 554.884 210.631 556.506 209.288C558.127 207.92 560.369 207.236 563.232 207.236C565.79 207.236 567.994 207.667 569.844 208.528V214C567.792 212.809 565.664 212.214 563.46 212.214C562.472 212.214 561.712 212.417 561.18 212.822C560.673 213.227 560.42 213.747 560.42 214.38C560.42 215.013 560.736 215.583 561.37 216.09C562.003 216.571 562.953 217.091 564.22 217.648C565.005 218.003 565.651 218.319 566.158 218.598C566.69 218.851 567.285 219.219 567.944 219.7C568.628 220.156 569.16 220.65 569.54 221.182C569.945 221.689 570.287 222.322 570.566 223.082C570.844 223.842 570.984 224.665 570.984 225.552ZM590.503 233H574.581V207.388H590.351V212.062H580.471V217.876H589.287V222.512H580.471V228.326H590.503V233ZM603.991 233H595.251V207.388H604.067C607.918 207.388 611.072 208.579 613.529 210.96C615.987 213.316 617.215 216.255 617.215 219.776C617.215 223.88 615.999 227.11 613.567 229.466C611.161 231.822 607.969 233 603.991 233ZM603.877 212.214H601.255V228.212H603.915C606.271 228.212 608.083 227.477 609.349 226.008C610.641 224.539 611.287 222.461 611.287 219.776C611.287 217.496 610.641 215.672 609.349 214.304C608.057 212.911 606.233 212.214 603.877 212.214Z" fill="black"/>
</svg>
